<svg width="15" height="22" viewBox="0 0 15 22" fill="none" xmlns="http://www.w3.org/2000/svg">
<g clip-path="url(#clip0_1_192)">
<path d="M10.444 4.63996C9.75958 4.63996 9.12958 4.81107 8.55403 5.15329C7.97847 5.49552 7.53514 5.96218 7.22403 6.55329C6.91292 5.96218 6.46958 5.49552 5.89403 5.15329C5.31847 4.81107 4.6807 4.64774 3.9807 4.66329C3.2807 4.67885 2.63514 4.87329 2.04403 5.24663C1.45292 5.61996 0.994029 6.11774 0.667362 6.73996C0.340695 7.36218 0.192918 8.03107 0.224029 8.74663C0.224029 9.95996 0.784029 11.2977 1.90403 12.76C2.77514 13.88 3.92625 15.0466 5.35736 16.26C5.88625 16.7266 6.50847 16.96 7.22403 16.96C7.93958 16.96 8.56181 16.7266 9.0907 16.26C10.5218 15.0466 11.6729 13.88 12.544 12.76C13.664 11.2977 14.224 9.95996 14.224 8.74663C14.2551 8.03107 14.1074 7.36218 13.7807 6.73996C13.454 6.11774 12.9951 5.61996 12.404 5.24663C11.8129 4.87329 11.1596 4.67107 10.444 4.63996Z" fill="#322E4D"/>
</g>
<defs>
<clipPath id="clip0_1_192">
<rect width="14" height="21" fill="white" transform="matrix(1 0 0 -1 0.219971 21.02)"/>
</clipPath>
</defs>
</svg>
