<svg width="29" height="29" viewBox="0 0 29 29" fill="none" xmlns="http://www.w3.org/2000/svg">
<rect x="1" y="1.27002" width="27" height="27" stroke="#2A2547"/>
<g clip-path="url(#clip0_1_384)">
<path d="M9.5 14.77C9.5 15.3034 9.68889 15.7589 10.0667 16.1367C10.4444 16.5145 10.8944 16.7034 11.4167 16.7034C11.9389 16.7034 12.3889 16.5367 12.7667 16.2034L15.6333 17.5034C15.6111 17.5922 15.6 17.6922 15.6 17.8034C15.6 18.3589 15.7889 18.8256 16.1667 19.2034C16.5444 19.5811 17.0056 19.77 17.55 19.77C18.0944 19.77 18.5556 19.5811 18.9333 19.2034C19.3111 18.8256 19.5 18.37 19.5 17.8367C19.5 17.3034 19.3111 16.8422 18.9333 16.4534C18.5556 16.0645 18.1 15.87 17.5667 15.87C17.2333 15.87 16.9278 15.9422 16.65 16.0867C16.3722 16.2311 16.1333 16.4367 15.9333 16.7034L13.2333 15.5034C13.4333 15.0145 13.4333 14.5256 13.2333 14.0367L15.9333 12.8034C16.2444 13.2478 16.6667 13.52 17.2 13.62C17.7333 13.72 18.2167 13.6145 18.65 13.3034C19.0833 12.9922 19.35 12.5756 19.45 12.0534C19.55 11.5311 19.4444 11.0478 19.1333 10.6034C18.8222 10.1589 18.4056 9.89224 17.8833 9.80335C17.3611 9.71446 16.8778 9.81446 16.4333 10.1034C16.1667 10.2811 15.9611 10.5145 15.8167 10.8034C15.6722 11.0922 15.6 11.3922 15.6 11.7034C15.6 11.8145 15.6111 11.9256 15.6333 12.0367L12.7667 13.3367C12.3667 12.9811 11.9 12.8089 11.3667 12.82C10.8333 12.8311 10.3889 13.0311 10.0333 13.42C9.67778 13.8089 9.5 14.2589 9.5 14.77Z" fill="#59606B"/>
</g>
<defs>
<clipPath id="clip0_1_384">
<rect width="10" height="10" fill="white" transform="matrix(1 0 0 -1 9.5 19.77)"/>
</clipPath>
</defs>
</svg>
