<svg width="29" height="29" viewBox="0 0 29 29" fill="none" xmlns="http://www.w3.org/2000/svg">
<rect x="1" y="1.27002" width="27" height="27" stroke="#2A2547"/>
<g clip-path="url(#clip0_1_381)">
<path d="M14.5 19.77C14.0333 19.77 13.6389 19.6089 13.3167 19.2867C12.9944 18.9645 12.8333 18.57 12.8333 18.1034V16.4367H11.1667C10.7 16.4367 10.3056 16.2756 9.98333 15.9534C9.66111 15.6311 9.5 15.2367 9.5 14.77C9.5 14.3034 9.66111 13.9089 9.98333 13.5867C10.3056 13.2645 10.7 13.1034 11.1667 13.1034H12.8333V11.4367C12.8333 10.97 12.9944 10.5756 13.3167 10.2534C13.6389 9.93113 14.0333 9.77002 14.5 9.77002C14.9667 9.77002 15.3611 9.93113 15.6833 10.2534C16.0056 10.5756 16.1667 10.97 16.1667 11.4367V13.1034H17.8333C18.3 13.1034 18.6944 13.2645 19.0167 13.5867C19.3389 13.9089 19.5 14.3034 19.5 14.77C19.5 15.2367 19.3389 15.6311 19.0167 15.9534C18.6944 16.2756 18.3 16.4367 17.8333 16.4367H16.1667V18.1034C16.1667 18.57 16.0056 18.9645 15.6833 19.2867C15.3611 19.6089 14.9667 19.77 14.5 19.77Z" fill="#59606B"/>
</g>
<defs>
<clipPath id="clip0_1_381">
<rect width="10" height="10" fill="white" transform="matrix(1 0 0 -1 9.5 19.77)"/>
</clipPath>
</defs>
</svg>
