<svg width="109" height="20" viewBox="0 0 109 20" fill="none" xmlns="http://www.w3.org/2000/svg">
<g clip-path="url(#clip0_1_485)">
<g clip-path="url(#clip1_1_485)">
<path d="M16.94 19.6202H12.494L5.058 8.36216V19.6202H0.612V1.36816H5.058L12.494 12.6782V1.36816H16.94V19.6202ZM32.0448 1.36816V4.93017H24.6088V8.77816H30.1728V12.2362H24.6088V19.6202H20.1628V1.36816H32.0448ZM47.5115 1.36816V4.93017H42.6755V19.6202H38.2295V4.93017H33.3935V1.36816H47.5115Z" fill="white"/>
<path d="M70.4129 1.36816V19.6202H65.9669V8.67416L61.8849 19.6202H58.2969L54.1889 8.64816V19.6202H49.7429V1.36816H54.9949L60.1169 14.0042L65.1869 1.36816H70.4129ZM84.972 16.3962H78.16L77.068 19.6202H72.414L79.018 1.36816H84.166L90.77 19.6202H86.064L84.972 16.3962ZM83.828 12.9642L81.566 6.28217L79.33 12.9642H83.828ZM103.362 19.6202L97.226 11.5602V19.6202H92.78V1.36816H97.226V9.37616L103.31 1.36816H108.536L101.464 10.3122L108.796 19.6202H103.362Z" fill="#6345ED"/>
</g>
</g>
<defs>
<clipPath id="clip0_1_485">
<rect width="109" height="19" fill="white" transform="translate(0 0.620117)"/>
</clipPath>
<clipPath id="clip1_1_485">
<rect width="109" height="19" fill="white" transform="translate(0 0.620117)"/>
</clipPath>
</defs>
</svg>
