<svg width="13" height="14" viewBox="0 0 13 14" fill="none" xmlns="http://www.w3.org/2000/svg">
<path d="M3.11438 13.09H0.571411V4.91418H3.11438V13.09ZM1.82922 3.82043C1.03625 3.82043 0.380005 3.13684 0.380005 2.31653C0.380005 1.52356 1.03625 0.86731 1.82922 0.86731C2.64954 0.86731 3.30579 1.52356 3.30579 2.31653C3.30579 3.13684 2.64954 3.82043 1.82922 3.82043ZM12.6027 13.09H10.087V9.12512C10.087 8.16809 10.0597 6.96497 8.74719 6.96497C7.43469 6.96497 7.24329 7.97668 7.24329 9.04309V13.09H4.70032V4.91418H7.13391V6.03528H7.16125C7.51672 5.40637 8.33704 4.72278 9.5675 4.72278C12.1378 4.72278 12.63 6.41809 12.63 8.60559V13.09H12.6027Z" fill="#E5E5E5"/>
</svg>
