<svg width="15" height="12" viewBox="0 0 15 12" fill="none" xmlns="http://www.w3.org/2000/svg">
<path d="M13.0508 2.99622C13.0508 3.13293 13.0508 3.24231 13.0508 3.37903C13.0508 7.17981 10.1797 11.5275 4.90234 11.5275C3.26172 11.5275 1.75781 11.0626 0.5 10.2423C0.71875 10.2697 0.9375 10.297 1.18359 10.297C2.52344 10.297 3.75391 9.83215 4.73828 9.06653C3.48047 9.03918 2.41406 8.21887 2.05859 7.07043C2.25 7.09778 2.41406 7.12512 2.60547 7.12512C2.85156 7.12512 3.125 7.07043 3.34375 7.01575C2.03125 6.74231 1.04688 5.59387 1.04688 4.19934V4.172C1.42969 4.39075 1.89453 4.50012 2.35938 4.52747C1.56641 4.00793 1.07422 3.13293 1.07422 2.14856C1.07422 1.60168 1.21094 1.1095 1.45703 0.699341C2.87891 2.422 5.01172 3.57043 7.39062 3.70715C7.33594 3.4884 7.30859 3.26965 7.30859 3.0509C7.30859 1.46497 8.59375 0.17981 10.1797 0.17981C11 0.17981 11.7383 0.507935 12.2852 1.08215C12.9141 0.945435 13.543 0.699341 14.0898 0.371216C13.8711 1.05481 13.4336 1.60168 12.832 1.95715C13.4062 1.90247 13.9805 1.7384 14.4727 1.51965C14.0898 2.09387 13.5977 2.58606 13.0508 2.99622Z" fill="#E5E5E5"/>
</svg>
