<svg width="11" height="14" viewBox="0 0 11 14" fill="none" xmlns="http://www.w3.org/2000/svg">
<path d="M5.82812 0.0313721C8.39844 0.0313721 10.75 1.80872 10.75 4.51575C10.75 7.05872 9.4375 9.90247 6.53906 9.90247C5.82812 9.90247 4.98047 9.547 4.625 8.91809C4.02344 11.379 4.05078 11.7618 2.68359 13.6486C2.54688 13.7032 2.57422 13.7032 2.49219 13.5939C2.4375 13.0743 2.38281 12.5822 2.38281 12.0626C2.38281 10.3947 3.14844 7.96106 3.53125 6.34778C3.3125 5.91028 3.25781 5.41809 3.25781 4.95325C3.25781 2.76575 5.82812 2.43762 5.82812 4.24231C5.82812 5.30872 5.08984 6.32043 5.08984 7.3595C5.08984 8.04309 5.69141 8.53528 6.375 8.53528C8.26172 8.53528 8.83594 5.82825 8.83594 4.37903C8.83594 2.43762 7.46875 1.37122 5.58203 1.37122C3.42188 1.37122 1.75391 2.92981 1.75391 5.11731C1.75391 6.18372 2.41016 6.73059 2.41016 6.97668C2.41016 7.19543 2.24609 7.93372 1.97266 7.93372C1.31641 7.93372 0.25 6.83997 0.25 4.9259C0.25 1.89075 3.01172 0.0313721 5.82812 0.0313721Z" fill="#E5E5E5"/>
</svg>
