<svg width="27" height="24" viewBox="0 0 27 24" fill="none" xmlns="http://www.w3.org/2000/svg">
<path d="M1.6875 4.98438C1.16016 4.98438 0.75 4.57422 0.75 4.04688V1.70312C0.75 1.23438 1.16016 0.765625 1.6875 0.765625H26.0625C26.5312 0.765625 27 1.23438 27 1.70312V4.04688C27 4.57422 26.5312 4.98438 26.0625 4.98438H1.6875ZM1.6875 14.3594C1.16016 14.3594 0.75 13.9492 0.75 13.4219V11.0781C0.75 10.6094 1.16016 10.1406 1.6875 10.1406H26.0625C26.5312 10.1406 27 10.6094 27 11.0781V13.4219C27 13.9492 26.5312 14.3594 26.0625 14.3594H1.6875ZM1.6875 23.7344C1.16016 23.7344 0.75 23.3242 0.75 22.7969V20.4531C0.75 19.9844 1.16016 19.5156 1.6875 19.5156H26.0625C26.5312 19.5156 27 19.9844 27 20.4531V22.7969C27 23.3242 26.5312 23.7344 26.0625 23.7344H1.6875Z" fill="white"/>
</svg>
